<?xml version="1.0" encoding="utf-8"?>
<!-- Generator: Adobe Illustrator 26.0.0, SVG Export Plug-In . SVG Version: 6.00 Build 0)  -->
<svg version="1.1" id="Capa_1" xmlns="http://www.w3.org/2000/svg" xmlns:xlink="http://www.w3.org/1999/xlink" x="0px" y="0px"
	 viewBox="0 0 438.8 414.5" style="enable-background:new 0 0 438.8 414.5;" xml:space="preserve">
<style type="text/css">
	.st0{fill:#263238;}
	.st1{fill:#F5F5F5;}
	.st2{fill:#FFFFFF;}
	.st3{fill:#EBEBEB;}
	.st4{fill:#E8505B;}
	.st5{opacity:0.6;}
	.st6{fill:#FAFAFA;}
	.st7{opacity:0.4;}
	.st8{fill:#FFBE9D;}
	.st9{fill:#E5BB51;}
	.st10{fill:#3B9636;}
	.st11{fill:#E0E0E0;}
	.st12{fill:#55E551;}
	.st13{fill:#455A64;}
	.st14{opacity:0.3;}
	.st15{fill:#EB996E;}
	.st16{fill:#6DB802;}
	.st17{fill:#FECD00;}
	.st18{fill:#A51619;}
	.st19{fill:#DFC33C;}
	.st20{fill:#FF6501;}
	.st21{fill:#FF6666;}
	.st22{fill:#9AA166;}
	.st23{fill:#F2F2F2;}
	.st24{fill:#7F2880;}
	.st25{fill:#989933;}
	.st26{fill:#9EC551;}
	.st27{fill:#CC3301;}
	.st28{fill:#927E19;}
	.st29{fill:none;stroke:#263238;stroke-width:5.000000e-02;stroke-miterlimit:10;}
</style>
<g id="Device">
	<path class="st0" d="M169.4,402.8H30.9C14.1,402.7,0,388.7,0,372.2L1.5,29.6C1.6,13.2,15.2-0.1,32,0c0,0,0,0,0,0l139.2,0.6
		c16.7,0.1,30.2,13.4,30.2,29.9c0,0,0,0,0,0l-1.5,342.6C199.8,389.6,186.2,402.8,169.4,402.8C169.4,402.8,169.4,402.8,169.4,402.8z"
		/>
	<path class="st1" d="M171,13.6l-27-0.1c-3.7,0.1-6.6,3-6.6,6.7c0,0,0,0,0,0V25c0.1,3.6-2.8,6.7-6.5,6.7c0,0-0.1,0-0.1,0l-52.6-0.3
		c-3.7-0.1-6.6-3.1-6.5-6.8v-4.8c0.1-3.6-2.8-6.6-6.5-6.7h-9.5l-23.6-0.1c-11.7,0-21.2,9.2-21.3,20.7L9.3,368.2
		c0,11.5,9.4,20.9,21.1,20.9l138.9,0.6c11.7,0.1,21.3-9.2,21.3-20.8c0,0,0,0,0,0l1.4-334.4C192.1,23.1,182.7,13.7,171,13.6z"/>
	<path class="st1" d="M112,326.6c-0.2,4-0.3,7.8-0.4,11h19.9l-2.4-12L112,326.6z"/>
	<path class="st1" d="M30.9,331.6l0.2,5.9h78.5c0.1-3.3,0.3-7,0.4-10.8L30.9,331.6z"/>
	<polygon class="st1" points="130.1,325.4 132.5,337.5 169.3,337.5 168.9,323 	"/>
	<polygon class="st1" points="114,156.4 120.9,116.8 102.7,115.4 102.7,156.4 	"/>
	<polygon class="st1" points="29.3,309.6 9.5,317.2 9.4,331 29.9,329.7 	"/>
	<polygon class="st1" points="29.2,306.5 28.1,269.6 28.1,269.6 28.1,256.6 9.8,258.5 9.5,314.1 29.2,306.5 	"/>
	<polygon class="st1" points="28.1,227.6 9.9,225.2 9.8,255.6 28.1,253.7 	"/>
	<polygon class="st1" points="163.6,257.2 162.9,267.8 141.4,270 143.1,278.4 167.5,276.6 167.1,264.6 169,256.7 	"/>
	<polygon class="st1" points="124.9,279.7 142.1,278.5 138.3,259.7 123.4,261.2 	"/>
	<polygon class="st1" points="125.1,281.7 126.4,297.3 128.7,318.8 129.7,323.5 168.8,321.1 167.5,278.5 	"/>
	<path class="st1" d="M57.8,207.8l1.5,2.5l-30.2,17.3v41.1l31.9-2.2l61.4-6.1l-2.2-26.9L61.4,226l0.4-2.9l58,7.4L116,185l-57.4,5.4
		l-0.2-2l57.4-5.4l-2-23.7H58.6l-48.5,8.7l-0.2,54.3l18.4,2.4L57.8,207.8z M32.2,264.7c0,0,0.2-33.8,0-35.1l24.6-12.9L60,263
		L32.2,264.7z"/>
	<polygon class="st1" points="161.6,257.4 139.3,259.6 141,268.1 161,266 	"/>
	<path class="st1" d="M112.3,319.3c-0.1,1.8-0.1,3.5-0.2,5.3l16.6-1l-0.8-4.2L112.3,319.3z"/>
	<polygon class="st1" points="76.5,156.4 79.4,143.3 101.7,143.3 101.7,115.4 32,110.3 32,136.5 10.3,141.4 10.2,165 58.4,156.4 	
		"/>
	<path class="st1" d="M123,78.5l-0.6-2.4l26.6-10.3l-17.3-34.1c-0.3,0.1-0.7,0.1-1,0.1l-29.4-0.1l0.8,47.8L123,78.5z"/>
	<path class="st1" d="M163.4,60.2V13.6L144,13.5c-3.7,0.1-6.6,3-6.6,6.7c0,0,0,0,0,0V25c0,2.2-1.1,4.2-2.9,5.5l17.3,34.2L163.4,60.2
		z"/>
	<path class="st1" d="M63.3,62.2l-2.2-49.1h-5.4L34.6,13l-9,43.9L63.3,62.2z M58.5,18.1l0.7,40l-28-4l6.2-36H58.5z"/>
	<path class="st1" d="M64.3,62.4v0.4c0,3.8,0.1,10.8,0.2,18.1l36.7-1.5l-0.8-47.8l-22.2-0.1c-3.7-0.1-6.6-3.1-6.5-6.8v-4.8
		c0.1-3.6-2.8-6.6-6.5-6.7h-3.1L64.3,62.4L64.3,62.4z"/>
	<path class="st1" d="M22.7,56.5L31.6,13C20,13.2,10.7,22.4,10.7,33.8l-0.1,21.7l0.1-0.6L22.7,56.5z"/>
	<polygon class="st1" points="29,110.1 10.4,108.7 10.3,138.4 29,134.2 	"/>
	<polygon class="st1" points="22.5,57.4 10.6,55.8 10.4,103.8 13,104 	"/>
	<polygon class="st1" points="60.1,306 60.5,267.4 29.1,269.6 30.2,307.4 	"/>
	<path class="st1" d="M65.9,297.1l44.4,20.9c0.5-13.7,1-26.4,1-27.2l1,0l0.5-0.9c0.6,0.3,0.6,0.3,0.3,9.6c-0.2,5.2-0.4,12.1-0.7,19
		h15.4l-2.3-21l-3-36.2L64.4,267L65.9,297.1z"/>
	<polygon class="st1" points="174.8,233.1 174.3,228 121.1,233.4 123.3,260.2 169.3,255.6 	"/>
	<polygon class="st1" points="101.7,146.3 81.8,146.3 79.6,156.4 101.7,156.4 	"/>
	<path class="st1" d="M166.6,149.7l-49.8-3.4l-2,11.6l2,25.1l52.5-5L166.6,149.7z M118.6,157.9l2.7-7.3l43.3,2.6l2.5,20.9l-47,5.5
		L118.6,157.9z"/>
	<polygon class="st1" points="171.8,202.1 169.6,179.9 117,184.9 119,208.5 	"/>
	<polygon class="st1" points="29.9,331.7 9.5,332.9 9.4,331.6 9.4,337.5 30.1,337.5 	"/>
	<path class="st1" d="M191.7,49.2l0.3,0.8l0.1-15.4c0-11.5-9.4-20.9-21.1-20.9h-6.6v46.2L191.7,49.2z"/>
	<path class="st1" d="M110.3,319L65,297.7l-1.6-30.6l-1.9,0.2l-0.3,39.6l-30.9,1.4v0.9l0,0l0,0l0.6,20.4l79.2-4.9
		C110.2,322.8,110.2,320.9,110.3,319z M32.2,310.8l43.3-3l28.1,12.8l-71.4,3.8V310.8z"/>
	<path class="st1" d="M178.8,100.5l1.9-10.8c-16.3-5.7-17.4-22.4-17.3-27.4l-10.6,4.1l16,31.5L178.8,100.5z"/>
	<polygon class="st1" points="120.8,230.5 142.9,228.2 138.6,209.1 119.2,211.4 	"/>
	<polygon class="st1" points="166.7,117.1 125.4,117.1 121.9,116.8 117.3,143.4 166.3,146.7 165.2,135.2 170,118.1 	"/>
	<path class="st1" d="M165.7,112.2l0.5-12.7l-16.2-32l-25.2,9.8l8.7,34.9L165.7,112.2z M149,71.4l14.9,27.8l-2.2,8.7l-25.4-1
		l-6.4-26.3L149,71.4z"/>
	<polygon class="st1" points="172.1,265.1 172.8,290 190.7,289 190.8,290 172.9,291 173.8,320.8 190.7,319.7 190.8,321.7 
		173.8,322.7 174.3,337.5 190.8,337.5 191.1,254.5 174.3,256.1 	"/>
	<path class="st1" d="M63.3,63.2l-37.9-5.3L16,104.2l47.5,3.5C63.7,100.5,63.5,78.7,63.3,63.2z"/>
	<polygon class="st1" points="125.6,112.2 131.4,112.2 123.3,79.5 102.2,80.3 102.7,110.5 	"/>
	<path class="st1" d="M9.3,361.3v6.8c0,0.2,0,0.4,0,0.6V361.3z"/>
	<path class="st1" d="M64.5,107.7l37.2,2.7l-0.5-30.1l-36.7,1.5C64.6,92,64.6,102.9,64.5,107.7z"/>
	<polygon class="st1" points="172,205 139.6,208.9 143.9,228.1 174,225.1 	"/>
	<path class="st1" d="M180.9,88.7l2.1-12.1l9,0.7l0.1-26.1l-27.7,10.8C163.8,80.3,175.5,86.8,180.9,88.7z"/>
	<polygon class="st1" points="170.2,135.6 171.3,147 191.6,148.4 191.7,124.8 174.7,119.6 	"/>
	<path class="st1" d="M179.8,233.4l-5.3,21.7l16.6-1.7l0.1-22.8c-5.1-1.3-9.6-2.4-11.9-2.8L179.8,233.4z"/>
	<polygon class="st1" points="168.6,112.6 191.7,119.7 191.8,106.8 169.1,101.1 	"/>
	<path class="st1" d="M179,224.9c1.9,0.3,5.4,1,12.2,2.8l0.2-49.8l-16.9,1.6L179,224.9z"/>
	<polygon class="st1" points="174.3,177.5 191.5,175.9 191.6,151.4 171.6,150 	"/>
	<path class="st1" d="M182.8,89.3c3,0.9,6,1.7,9.1,2.3V79.3l-7.3-0.6L182.8,89.3z"/>
	<path class="st1" d="M180.8,101l11,2.8l0-11.2c-2.9-0.6-6-1.3-9.2-2.3L180.8,101z"/>
	<path class="st2" d="M29.9,331.7l0.2,5.9h1l-0.2-5.9l79.1-4.9c-0.1,3.8-0.3,7.5-0.4,10.8h2c0.1-3.2,0.3-6.9,0.4-11l17.1-1.1l2.4,12
		h1l-2.4-12.1l38.8-2.4l0.4,14.5h5l-0.5-14.8l17-1.1l-0.1-2l-16.9,1.1l-0.9-29.8l17.9-1l-0.1-1l-17.9,1l-0.8-24.9l2.2-9l16.9-1.7v-1
		l-16.6,1.6l5.3-21.7l-0.5-5.6c2.4,0.4,6.8,1.5,11.9,2.8v-3c-6.9-1.8-10.4-2.5-12.2-2.8l-4.5-45.4l16.9-1.6v-2l-17.2,1.6l-2.7-27.5
		l20,1.4v-2.9l-20.3-1.4l-1.1-11.5l4.5-16l16.9,5.3v-5.1l-23.1-7.2l0.5-11.5l22.7,5.8v-3l-11-2.8l1.8-10.7c3.3,1,6.4,1.7,9.2,2.3v-1
		c-3.1-0.6-6.1-1.4-9.1-2.3l1.8-10.7l7.3,0.6v-2l-9-0.7l-2.1,12.1c-5.3-2-17.1-8.4-16.5-26.8l27.7-10.8v-1.3l-0.3-0.8l-27.2,10.6
		V13.6h-1v46.6l-11.5,4.5l-17.3-34.2c-0.8,0.6-1.8,1-2.8,1.1l17.3,34.1l-26.6,10.3l0.6,2.4l-20.9,0.8l-0.8-47.8h-1l0.8,47.8
		l-36.7,1.5c-0.1-7.4-0.1-14.3-0.2-18.1v-0.4l0,0l-2.2-49.2h-1l2.2,49.1l-37.7-5.4l9-43.9h-2.6h-0.5l-8.9,43.5l-11.9-1.7l-0.1,0.6
		v0.3l11.9,1.7L13,104l-2.6-0.2v4.9l18.6,1.4v24.1l-18.8,4.2v3l21.8-4.8v-26.3l69.7,5.1v28H79.4l-2.9,13H58.4L10.2,165v3l48.5-8.7
		h55.2l2,23.7l-57.4,5.4l0.2,2L116,185l3.8,45.5l-58-7.4l-0.4,2.9l58.6,7.5l2.2,26.9l-61.4,6l-31.9,2.2v-41.1l30.2-17.3l-1.5-2.5
		l-29.5,16.9l-18.4-2.4v2.9l18.2,2.4v26.1l-18.3,2v2.9l18.3-1.9v13l0,0l1.1,36.9l0,0l-19.7,7.6v3.1l19.8-7.6l0.6,20.1l-20.4,1.3v0.7
		l0.1,1.3L29.9,331.7z M112.1,324.6c0.1-1.7,0.1-3.5,0.2-5.3h15.5l0.8,4.2L112.1,324.6z M129.7,323.5l-1-4.7l-2.3-21.5l-1.3-15.6
		l42.4-3.1l1.3,42.6L129.7,323.5z M139.3,259.6l22.3-2.2L161,266l-20,2.1L139.3,259.6z M138.3,259.7l3.7,18.8l-17.1,1.3l-1.6-18.6
		L138.3,259.7z M167.5,276.6l-24.4,1.8l-1.7-8.4l21.5-2.3l0.8-10.6l5.4-0.5l-2,7.9L167.5,276.6z M138.6,209.1l4.3,19.2l-22.1,2.2
		l-1.6-19.1L138.6,209.1z M143.9,228.1l-4.4-19.2l32.5-3.9l2,20L143.9,228.1z M166.3,146.7l-49-3.3l4.7-26.6l3.4,0.3h41.3l3.3,1
		l-4.8,17L166.3,146.7z M163.3,62.3c0,5,1.1,21.7,17.3,27.4l-1.9,10.8l-10.1-2.6l-16-31.5L163.3,62.3z M149.9,67.5l16.2,32
		l-0.5,12.7h-32.2l-8.7-34.9L149.9,67.5z M123.2,79.5l8.1,32.7h-5.7l-23-1.7l-0.5-30.2L123.2,79.5z M101.2,80.4l0.5,30.1l-37.2-2.7
		c0.2-4.9,0.1-15.7,0-25.9L101.2,80.4z M25.4,57.9l37.9,5.3c0.2,15.4,0.4,37.3,0.2,44.5L16,104.2L25.4,57.9z M120.9,116.8l-7,39.6
		h-11.2v-41L120.9,116.8z M81.8,146.3h19.9v10.1H79.6L81.8,146.3z M114.7,157.9l2-11.6l49.8,3.4l2.8,28.3l-52.4,4.9L114.7,157.9z
		 M169.6,179.9l2.2,22.2l-52.8,6.4l-2-23.6L169.6,179.9z M121.1,233.4l53.2-5.4l0.5,5.1l-5.5,22.6l-46,4.6L121.1,233.4z
		 M125.4,297.4l2.3,21h-15.4c0.3-6.9,0.5-13.8,0.7-19c0.3-9.3,0.3-9.3-0.3-9.6l-0.5,0.9l-1,0c0,0.8-0.4,13.6-1,27.2l-44.4-20.9
		l-1.6-30l58-5.7L125.4,297.4z M60.5,267.4L60.2,306l-29.9,1.4l-1.1-37.8L60.5,267.4z M30.3,309.2L30.3,309.2L30.3,309.2v-0.9
		l30.9-1.4l0.3-39.6l1.9-0.2l1.6,30.6l45.3,21.3c-0.1,1.9-0.1,3.8-0.2,5.7l-79.2,4.9L30.3,309.2z"/>
	<polygon class="st3" points="75.4,307.9 32.2,310.8 32.2,324.5 103.6,320.7 	"/>
	<polygon class="st3" points="164.5,153.2 121.3,150.5 118.6,157.8 120.1,179.5 167.1,174.1 	"/>
	<polygon class="st3" points="59.2,58.1 58.5,18.1 37.4,18.1 31.2,54.1 	"/>
	<polygon class="st3" points="161.7,107.9 163.8,99.2 149,71.4 129.9,80.6 136.2,106.9 	"/>
	<path class="st3" d="M32.2,229.6c0.2,1.3,0,35.1,0,35.1L60,263l-3.2-46.2L32.2,229.6z"/>
	<polygon class="st3" points="124.9,257.1 123.5,236.1 171.2,230.1 171.2,233.7 165.4,253 	"/>
	<path class="st4" d="M89.7,83.3c0,3.2-2.6,5.7-5.8,5.7c-3.2,0-5.8-2.6-5.8-5.7c0-3.2,2.6-5.7,5.8-5.7l0,0
		C87.1,77.6,89.7,80.2,89.7,83.3z"/>
	<g class="st5">
		<path class="st2" d="M89.6,83.1c0.1,3.1-2.3,5.8-5.6,6s-5.9-2.3-6.1-5.5c-0.1-3.1,2.3-5.8,5.6-6c0,0,0,0,0,0
			C86.8,77.5,89.5,80,89.6,83.1z"/>
	</g>
	<ellipse class="st4" cx="83.8" cy="83.2" rx="3.9" ry="3.8"/>
	<path class="st4" d="M173.7,311.2c0,1.3-1.1,2.4-2.5,2.4s-2.5-1.1-2.5-2.4s1.1-2.4,2.5-2.4S173.7,309.9,173.7,311.2z"/>
	<path class="st4" d="M169.7,310.4l-0.6-13.7l-41.9,2c-1.1,0.1-2.2-0.2-3.2-0.7l-59.5-29.5c-1.4-0.7-2.3-2-2.4-3.6L54,110.9
		c-0.1-1.4,1-2.6,2.5-2.7c0.1,0,0.2,0,0.3,0l25.5,1.8V82.7h3v27.7c0,1.4-1.2,2.6-2.6,2.6c-0.1,0-0.1,0-0.2,0l-25.4-1.8l8.1,153.8
		c0,0.5,0.3,0.9,0.7,1.1l59.5,29.5c0.5,0.3,1.1,0.4,1.7,0.4l42.3-2c0.7,0,1.4,0.2,1.9,0.7c0.5,0.5,0.8,1.1,0.9,1.8l0.6,14
		L169.7,310.4z"/>
	<ellipse class="st4" cx="58.9" cy="177.8" rx="7.5" ry="7.4"/>
	<ellipse class="st6" cx="58.9" cy="177.8" rx="5.2" ry="5.1"/>
	<path class="st4" d="M58.9,183.3c-3.1,0-5.6-2.5-5.6-5.5c0-3,2.5-5.5,5.6-5.5c3.1,0,5.6,2.5,5.6,5.5
		C64.5,180.9,62,183.3,58.9,183.3L58.9,183.3z M58.9,173.1c-2.7,0-4.9,2.1-4.9,4.8s2.2,4.8,4.9,4.8c2.7,0,4.9-2.1,4.9-4.8
		C63.8,175.2,61.6,173.1,58.9,173.1C58.9,173.1,58.9,173.1,58.9,173.1L58.9,173.1z"/>
	<path class="st4" d="M103.2,146.8H67.4c-1.7,0-3.2,1.4-3.2,3.1v12.7c0,1.7,1.4,3.1,3.2,3.1h0.4v3l3.6-3h31.9c1.7,0,3.2-1.4,3.2-3.1
		v-12.7C106.4,148.2,105,146.8,103.2,146.8C103.3,146.8,103.3,146.8,103.2,146.8z"/>
	<g class="st7">
		<path class="st2" d="M103.2,146.8H67.4c-1.7,0-3.2,1.4-3.2,3.1v12.7c0,1.7,1.4,3.1,3.2,3.1h0.4v3l3.6-3h31.9
			c1.7,0,3.2-1.4,3.2-3.1v-12.7C106.4,148.2,105,146.8,103.2,146.8C103.3,146.8,103.3,146.8,103.2,146.8z"/>
	</g>
	<g>
		<g>
			<path d="M70.7,156.1c0-2.1,1.2-3.3,2.9-3.3c0.8,0,1.4,0.4,1.8,0.8l-0.5,0.5c-0.3-0.4-0.8-0.6-1.3-0.6c-1.2,0-2.1,1-2.1,2.6
				c0,1.6,0.8,2.6,2,2.6c0.6,0,1.1-0.3,1.5-0.7l0.5,0.5c-0.5,0.6-1.2,0.9-2,0.9C72,159.4,70.7,158.2,70.7,156.1z"/>
			<path d="M76.7,158.3v-6h0.8v6.1c0,0.2,0.1,0.3,0.2,0.3c0,0,0.1,0,0.2,0l0.1,0.6c-0.1,0-0.3,0.1-0.5,0.1
				C77,159.4,76.7,159,76.7,158.3z"/>
			<path d="M79.1,153c0-0.3,0.2-0.5,0.6-0.5s0.6,0.2,0.6,0.5c0,0.3-0.2,0.5-0.6,0.5S79.1,153.3,79.1,153z M79.3,154.5h0.8v4.8h-0.8
				V154.5z"/>
			<path d="M81.3,156.9c0-1.5,1.1-2.5,2.2-2.5c1.2,0,1.9,0.9,1.9,2.2c0,0.2,0,0.3,0,0.5h-3.3c0.1,1,0.7,1.7,1.6,1.7
				c0.5,0,0.8-0.1,1.2-0.4l0.3,0.5c-0.4,0.3-0.9,0.5-1.6,0.5C82.4,159.4,81.3,158.5,81.3,156.9z M84.7,156.5c0-1-0.4-1.5-1.2-1.5
				c-0.7,0-1.3,0.5-1.4,1.5H84.7z"/>
			<path d="M86.6,154.5h0.7l0.1,0.7h0c0.5-0.4,1-0.8,1.6-0.8c1,0,1.5,0.6,1.5,1.9v3h-0.8v-2.9c0-0.9-0.3-1.3-0.9-1.3
				c-0.5,0-0.8,0.2-1.3,0.7v3.4h-0.8V154.5z"/>
			<path d="M92.2,157.8v-2.6h-0.7v-0.6l0.8,0l0.1-1.3H93v1.3h1.3v0.7H93v2.6c0,0.6,0.2,0.9,0.7,0.9c0.2,0,0.4-0.1,0.6-0.1l0.2,0.6
				c-0.3,0.1-0.6,0.2-0.9,0.2C92.6,159.4,92.2,158.7,92.2,157.8z"/>
			<path d="M95.1,156.9c0-1.5,1.1-2.5,2.2-2.5c1.2,0,1.9,0.9,1.9,2.2c0,0.2,0,0.3,0,0.5h-3.3c0.1,1,0.7,1.7,1.6,1.7
				c0.5,0,0.8-0.1,1.2-0.4l0.3,0.5c-0.4,0.3-0.9,0.5-1.6,0.5C96.1,159.4,95.1,158.5,95.1,156.9z M98.5,156.5c0-1-0.4-1.5-1.2-1.5
				c-0.7,0-1.3,0.5-1.4,1.5H98.5z"/>
		</g>
	</g>
	<path class="st4" d="M91.4,64.2c0-4-3.3-7.3-7.5-7.3c-4.1,0-7.4,3.3-7.4,7.3c0,1.3,0.4,2.6,1,3.7l0,0l0,0c0.3,0.5,0.6,0.8,1,1.3
		l4.3,5.6c0.4,0.6,1.3,0.7,1.9,0.3c0.1-0.1,0.2-0.2,0.3-0.3l4.3-5.5c0.4-0.4,0.7-0.9,1.1-1.4l0,0l0,0C91,66.8,91.4,65.5,91.4,64.2z
		 M84,67.4c-1.8,0-3.3-1.4-3.3-3.2c0-1.8,1.5-3.2,3.3-3.2c1.8,0,3.3,1.4,3.3,3.2c0,0,0,0,0,0C87.2,65.9,85.8,67.4,84,67.4z"/>
	<path class="st4" d="M163.4,345.6h-25.2c-2.7,0-4.8,2.1-4.8,4.7v19.5c0,2.6,2.2,4.7,4.8,4.7h0.6v4.6l5.5-4.6h19.1
		c2.7,0,4.8-2.1,4.8-4.7v-19.4C168.3,347.8,166.1,345.7,163.4,345.6C163.4,345.6,163.4,345.6,163.4,345.6z"/>
	<path class="st6" d="M140.6,354.6v10c0,0.2,0.2,0.4,0.4,0.4h21.3c0.2,0,0.4-0.2,0.4-0.4c0,0,0,0,0,0l0-3.7c0-0.1,0-0.2-0.1-0.2
		l-3.1-4c-0.1-0.1-0.2-0.2-0.3-0.2h-3.5c-0.2,0-0.4-0.2-0.4-0.4v-1.5c0-0.2-0.2-0.4-0.4-0.4H141
		C140.8,354.2,140.6,354.4,140.6,354.6z"/>
	<path class="st4" d="M156.3,357.3v3.2c0,0.1,0.1,0.2,0.2,0.2l0,0l4.7-0.1c0.1,0,0.2-0.1,0.2-0.2c0,0,0-0.1,0-0.1l-2.2-3.2
		c0-0.1-0.1-0.1-0.2-0.1l-2.5,0.1C156.4,357.1,156.3,357.2,156.3,357.3C156.3,357.3,156.3,357.3,156.3,357.3z"/>
	<rect x="140.2" y="365.2" class="st6" width="23" height="0.7"/>
	<path class="st4" d="M147.8,365.5c0,1.2-1,2.2-2.3,2.2c-1.3,0-2.3-1-2.3-2.2c0-1.2,1-2.2,2.3-2.2c0,0,0,0,0,0
		C146.8,363.3,147.8,364.3,147.8,365.5z"/>
	<path class="st6" d="M146.8,365.5c0,0.7-0.6,1.3-1.3,1.3c-0.7,0-1.3-0.6-1.4-1.3c0-0.7,0.6-1.3,1.3-1.3c0,0,0,0,0,0
		C146.2,364.2,146.8,364.8,146.8,365.5C146.8,365.5,146.8,365.5,146.8,365.5z"/>
	<path class="st4" d="M155.3,364.9c0,0-0.1-2.4-0.1-5.4s0-5.4,0.1-5.4s0.1,2.4,0.1,5.4S155.3,364.9,155.3,364.9z"/>
	<path class="st4" d="M160.2,365.5c0,1.2-1,2.2-2.3,2.2s-2.3-1-2.3-2.2s1-2.2,2.3-2.2l0,0C159.1,363.3,160.2,364.3,160.2,365.5z"/>
	<path class="st6" d="M159.2,365.5c0,0.7-0.6,1.3-1.3,1.3c-0.7,0-1.3-0.6-1.3-1.3c0-0.7,0.6-1.3,1.3-1.3l0,0
		C158.6,364.2,159.2,364.8,159.2,365.5z"/>
	<path class="st4" d="M157.9,361.4c0,0.1-0.3,0.1-0.7,0.1c-0.4,0-0.7,0-0.7-0.1s0.3-0.1,0.7-0.1
		C157.6,361.3,157.9,361.3,157.9,361.4z"/>
</g>
<g id="Character">
	<path class="st8" d="M308.9,208.9c0,0,16.1,2.7,17.4,3c1.3,0.3,6.4,2.7,6.6,4.2c0.1,2,0.1,4,0,6c0,0-0.9,0.7-1.5-0.7
		c-0.4-1.4-0.5-2.9-0.5-4.4l-2.8-1.1l1.6,2.7l0.3,6.3c0,0-2-0.2-2.4-1.7c-0.2-1.1-0.4-2.1-0.4-3.2l-2.1-1.7l1.6,2.1l0.5,4.6
		c0,0-1.5,0.5-2-0.5c-0.3-1.3-0.5-2.7-0.5-4l-5.9-2l-3.9,2.1l-7.2-4L308.9,208.9z"/>
	<path class="st9" d="M252.7,169.9c0.1,0.3,19.3,26.4,19.3,26.4l38.7,11.8l-1.8,14.3l-47.5-9.4l-16.8-19L252.7,169.9z"/>
	<g>
		<path class="st10" d="M252.7,169.9c0.1,0.3,19.3,26.4,19.3,26.4l38.7,11.8l-1.8,14.3l-47.5-9.4l-16.8-19L252.7,169.9z"/>
	</g>
	<ellipse class="st0" cx="398.1" cy="374.5" rx="40.7" ry="40"/>
	<path class="st0" d="M357.4,373.8c0,0,0,0.1,0,0.1c-0.2,22.1,17.9,40.1,40.4,40.3c22.3,0.2,40.6-17.3,41-39.1V375L357.4,373.8z"/>
	<path class="st6" d="M369.6,374.1c-0.2,15.5,12.4,28.2,28.2,28.5c15.8,0.2,28.8-12.2,29-27.7c0.2-15.5-12.4-28.2-28.2-28.5
		c0,0,0,0,0,0C382.8,346.2,369.8,358.6,369.6,374.1z"/>
	<path class="st11" d="M398.5,346.4c-15.8-0.2-28.8,12.2-29,27.7l57.1,0.8C426.9,359.4,414.3,346.7,398.5,346.4z"/>
	<path class="st0" d="M380.7,374.3c-0.1,9.4,7.5,17.2,17.2,17.3s17.5-7.4,17.7-16.8c0.1-9.4-7.5-17.2-17.2-17.3c0,0,0,0,0,0
		C388.8,357.3,380.9,364.8,380.7,374.3z"/>
	<path class="st12" d="M378.8,315.9c0,0,41.7-12.4,58.9,32.1l-87.2,26.5L378.8,315.9z"/>
	<ellipse class="st0" cx="147" cy="374.5" rx="40.7" ry="40"/>
	<path class="st0" d="M106.3,373.8c0,0,0,0.1,0,0.1c-0.2,22.1,17.9,40.1,40.4,40.3c22.3,0.2,40.6-17.3,41-39.1V375L106.3,373.8z"/>
	<path class="st6" d="M118.4,374.1c-0.2,15.5,12.4,28.2,28.2,28.4c15.8,0.2,28.7-12.2,29-27.7c0.2-15.5-12.4-28.2-28.2-28.4
		C131.6,346.2,118.7,358.6,118.4,374.1C118.4,374.1,118.4,374.1,118.4,374.1z"/>
	<path class="st11" d="M147.4,346.4c-15.8-0.2-28.8,12.2-29,27.6c0,0,0,0,0,0l57.1,0.8C175.8,359.4,163.2,346.7,147.4,346.4z"/>
	<path class="st0" d="M129.6,374.3c-0.1,9.4,7.5,17.2,17.2,17.3c9.6,0.1,17.5-7.4,17.7-16.8c0.1-9.4-7.5-17.2-17.2-17.3c0,0,0,0,0,0
		C137.6,357.3,129.7,364.8,129.6,374.3z"/>
	<path class="st13" d="M204.9,358.5c-0.2,0.1-21.4-3.2-21.4-3.2l0,0c-2.3,3-5.9,4.8-9.7,5c-9.2,0.4-18.1,0.8-25.9,1.2
		c-7.2,0.3-12.8,6.3-12.5,13.4l0,0c0.3,6.7,5.8,12.1,12.6,12.3l45.1,1.7c7.4,0.3,17.3-4.1,21.9-9.8l0,0L204.9,358.5z"/>
	<path class="st12" d="M94.2,340.8c0,0-2-39,35.3-47.1v-5h130.6v11.9c0,0-19.2,22.7-12.9,41.5c6.2,18.8,8.2,20.7,8.2,20.7h74.3
		c5.9-8.1,9.1-17.7,9.4-27.7c0.4-16.5-6.6-44.8-11.8-62.8c-4.7-16.4-7.7-30.1-7.7-30.1l22.3-7.3c0,0,41.3,53,42.9,55.9
		c1.7,3,7.4,9.9,6.1,25.2c-1.4,15.2-38.4,62.2-48.2,67.5c-9.8,5.3-18.5,5.6-27.3,6.9c-7.6,1.2-63.9,0.4-78.6,0.2
		c-5.1,0-10.1-1.4-14.5-4c-4.4-2.6-7.7-7-11.4-14.1l-7.8-14.9L94.2,340.8z"/>
	<path class="st13" d="M104.2,338.1l-16.5,25.3c-1.2,1.8-0.8,4.2,1,5.4c1.1,0.8,2.6,0.9,3.9,0.4c2-0.9,3.9-2.1,5.5-3.7
		c7.5-7,20.9-25.5,20.9-25.5L104.2,338.1z"/>
	<path class="st0" d="M222.1,342.6c0-0.1,0-0.3,0.1-0.4c0.1-0.3,0.2-0.6,0.3-1.1c0.4-1.4,0.7-2.8,0.9-4.2c0.6-5.2-0.3-10.5-2.5-15.3
		c-1.5-3.3-3.5-6.3-6.1-8.9c-2.9-3-6.3-5.5-10-7.5c-4.1-2.2-8.5-3.8-13-4.8c-4.9-1-9.9-1.5-14.9-1.5c-5,0-10,0.4-15,1.1
		c-4.8,0.6-9.4,1.4-13.8,2.4c-7.7,1.6-15.2,4.3-22.2,8c-4.7,2.5-8.9,5.7-12.7,9.5c-1.3,1.3-2.3,2.4-2.9,3.2l-0.7,0.9
		c-0.2,0.2-0.2,0.3-0.3,0.3c1.1-1.6,2.3-3.1,3.7-4.5c3.7-3.8,7.9-7.1,12.6-9.7c7-3.8,14.4-6.5,22.2-8.2c4.4-1,9-1.8,13.8-2.4
		c5-0.7,10-1.1,15.1-1.1c5,0,10.1,0.5,15,1.5c4.6,1,9,2.7,13.2,4.9c3.7,2,7.1,4.6,10.1,7.6c2.5,2.7,4.6,5.7,6.1,9.1
		c2.2,4.8,3,10.2,2.4,15.4c-0.2,1.4-0.5,2.8-1,4.2c-0.2,0.4-0.3,0.8-0.4,1.1L222.1,342.6z"/>
	<path class="st1" d="M214.6,333.9c-0.1,0,0.2-0.6,0.5-1.7c0.4-1.6,0.4-3.3,0.1-4.9c-0.4-2.4-1.2-4.7-2.4-6.8
		c-0.7-1.3-1.5-2.4-2.4-3.6c-1-1.2-2-2.3-3.2-3.3c-2.3-1.9-5-3.4-7.8-4.5c-2.3-0.9-4.7-1.5-7.1-2c-1.6-0.3-3.3-0.5-5-0.6
		c-0.6,0-1.2-0.1-1.8-0.1c0.2,0,0.3,0,0.5,0c0.3,0,0.8,0,1.4,0c1.7,0,3.3,0.2,5,0.4c2.5,0.3,4.9,1,7.2,1.8c2.9,1.1,5.6,2.6,8,4.5
		c1.2,1,2.3,2.1,3.3,3.4c0.9,1.1,1.7,2.4,2.4,3.6c1.2,2.2,2,4.5,2.4,7c0.2,1.7,0.1,3.3-0.3,4.9c-0.1,0.4-0.3,0.9-0.5,1.3
		C214.7,333.6,214.7,333.7,214.6,333.9z"/>
	<g class="st7">
		<path d="M189,299.8c7,1.3,13.7,3.9,19.7,7.8c6,3.9,10.6,9.5,13.2,16.1c2.6,6.6,2.2,15.3-0.5,20.8l9.2,0.8
			c3.1-10.2-0.3-22.7-7.7-30.6C214.2,305.1,201.9,299.8,189,299.8"/>
	</g>
	<path class="st12" d="M105.3,220.2h80.7c4.7,0,8.5,3.8,8.5,8.4v51.8c0,4.6-3.8,8.4-8.5,8.4h-80.7c-4.7,0-8.5-3.8-8.5-8.4v-51.8
		C96.8,223.9,100.6,220.2,105.3,220.2z"/>
	<path class="st0" d="M260,293.3c0,0.1-29.3,0.3-65.5,0.3s-65.5-0.1-65.5-0.3c0-0.1,29.3-0.3,65.5-0.3S260,293.1,260,293.3z"/>
	<path class="st13" d="M260.1,288.7c1.3-1.7,2.1-3.7,2.4-5.7c0.2-3.2-1.3-7.2-4.8-7.2h-45.1c-7.3,0-13.2,5.8-13.2,13H260.1z"/>
	<path class="st12" d="M319.5,242.2l-7.8-16.1c-2.1-4.6-0.4-10,4-12.6l23.5-13.7c1.2-0.7,2.6-1.1,4.1-1.1h5.1l2,32.5l-7.8,2.9l5,7.9
		L319.5,242.2z"/>
	<path class="st3" d="M348.3,200c0,0,8,1.8,9,13.9s-7.1,15.9-7.1,15.9L348.3,200z"/>
	<path class="st0" d="M322.3,219.9c0,0-16.2,7.5-18.2,8.8c-1.4,0.9-2.5,2.4-1.5,5c1.8,4.5,9.4,0.3,9.4,0.3l15.1-7.4
		c0,0,5.8-2.7,3.7-6.1C328.4,216.7,322.3,219.9,322.3,219.9z"/>
	<path class="st8" d="M299.3,217.1c0,0,15.2,2.6,16.5,2.9c1.3,0.4,6.4,2.7,6.6,4.2c0.1,2,0.1,4,0,6c0,0-0.9,0.7-1.5-0.7
		c-0.4-1.4-0.5-2.9-0.5-4.4l-2.8-1.1l1.6,2.7l0.3,6.4c0,0-2-0.2-2.4-1.7c-0.2-1.1-0.4-2.1-0.4-3.2l-2.1-1.7l1.5,2.1l0.5,4.6
		c0,0-1.5,0.5-2-0.5c-0.4-1.3-0.5-2.7-0.5-4l-5.9-2l-3.9,2.1l-6.1-3.3L299.3,217.1z"/>
	<path class="st0" d="M323.1,196.3c0,6.1-2.8,11-6.3,11s-6.3-4.9-6.3-11c0-6.1,2.8-11,6.3-11S323.1,190.2,323.1,196.3z"/>
	<path class="st0" d="M317.8,203.8l3.5,11.8c1.3-0.7,2-2.1,1.6-3.5c-0.9-4.1-1.4-6.9-2.3-10.5C320.4,201.3,317.7,203.8,317.8,203.8"
		/>
	<g class="st7">
		<path d="M248.9,347.2c-0.3-1-0.7-2-1-3s-0.7-2-0.9-2.9c-0.4-1.5-0.7-3-0.9-4.5c-5.9,23.5,3.1,40,18.5,41.2
			c22.5,1.7,49.9,2.9,61,0.1c20.2-5.2,27.6-21.8,29.4-24.5c1.8-2.7,17.9-31.6,8-59.4s-27-57.3-27-57.3l-16.4,5.4
			c0,0,3,13.7,7.7,30.1c5.2,18.1,12.2,46.3,11.8,62.8c-0.3,9.9-3.5,19.6-9.4,27.7h-74.3C255.4,362.8,253.8,361.2,248.9,347.2"/>
	</g>
	<path class="st4" d="M91.2,334.7l0.5-5.6l135.7,15.3c7.3,0.8,12.6,7.4,11.7,14.6c0,0.2-0.1,0.5-0.1,0.7l-0.6,3.4L98,343.2
		C93.8,342.6,90.8,338.8,91.2,334.7z"/>
	<g class="st5">
		<path d="M91.2,334.7l0.5-5.6l135.7,15.3c7.3,0.8,12.6,7.4,11.7,14.6c0,0.2-0.1,0.5-0.1,0.7l-0.6,3.4L98,343.2
			C93.8,342.6,90.8,338.8,91.2,334.7z"/>
	</g>
	<g class="st14">
		<path d="M355,371.9c0,0,29.9-32.3,36-57.6c3.1,0,6.2,0.2,9.2,0.7C400.2,315,382.6,362.1,355,371.9z"/>
	</g>
	<path class="st0" d="M390.5,303c0.1,0.3,0.1,0.5,0.2,0.8c0.1,0.5,0.2,1.3,0.3,2.4c0.3,2.9,0.2,5.9-0.2,8.8c-0.7,4.3-2,8.5-4,12.4
		c-2.4,4.8-5,9.4-7.9,13.9c-5.2,8.2-11,15.9-17.5,23.2c-2.4,2.8-4.4,5.1-5.8,6.6l-1.6,1.8c-0.2,0.2-0.4,0.4-0.6,0.6
		c0.1-0.2,0.3-0.5,0.5-0.7l1.5-1.8l5.7-6.7c6.4-7.3,12.2-15.1,17.4-23.3c2.9-4.5,5.5-9.1,7.9-13.8c1.9-3.9,3.3-8,4-12.3
		c0.5-2.9,0.6-5.8,0.4-8.7c-0.1-1-0.2-1.8-0.2-2.4C390.6,303.5,390.5,303.2,390.5,303z"/>
	<path class="st0" d="M338.9,371.7c-1.7-1.3-3.3-2.7-4.8-4.2c-1.6-1.4-3.1-3-4.4-4.6c1.7,1.3,3.3,2.7,4.8,4.2
		C336.1,368.5,337.6,370,338.9,371.7z"/>
	<path class="st0" d="M250.3,370.7c0.5-1.5,1.2-2.9,2.2-4.2c0.8-1.4,1.9-2.6,3.1-3.5c0.1,0.1-1.2,1.7-2.7,3.8
		C251.4,368.9,250.4,370.8,250.3,370.7z"/>
	<path class="st0" d="M192.9,389.3c1.6-1.5,3-3.2,4.1-5.1c1.1-2.1,1.8-4.3,2-6.7c0.6-5.8-2.1-11.5-7.1-14.7c-2-1.3-4.2-2.2-6.5-2.7
		c-2.2-0.4-4.4-0.4-6.6-0.1c0.1-0.1,0.3-0.1,0.4-0.1c0.4-0.1,0.9-0.2,1.3-0.3c1.6-0.2,3.3-0.2,4.9,0.1c2.4,0.4,4.7,1.3,6.7,2.6
		c5.2,3.2,8.1,9.1,7.4,15.1c-0.2,2.4-1,4.7-2.2,6.8c-0.8,1.4-1.8,2.7-3,3.8c-0.3,0.3-0.6,0.6-1,0.8
		C193.2,389.2,193.1,389.3,192.9,389.3z"/>
	<path class="st0" d="M143.4,379.1c-0.3-1.5-0.5-3.1-0.5-4.7c-0.2-1.6-0.2-3.2,0-4.7c0.3,1.5,0.5,3.1,0.5,4.7
		C143.5,376,143.5,377.5,143.4,379.1z"/>
	<path class="st0" d="M147,379.1c-0.7-3.1-1.2-6.3-1.2-9.4c0.5,1.5,0.7,3.1,0.9,4.7C146.9,375.9,147,377.5,147,379.1z"/>
	<path class="st0" d="M202.9,288.7c0,0.1-16.5,0.3-36.8,0.3s-36.8-0.1-36.8-0.3c0-0.1,16.5-0.3,36.8-0.3S202.9,288.6,202.9,288.7z"
		/>
	<path class="st13" d="M116.6,401.6c-0.2-0.1-0.3-0.3-0.4-0.4c-0.3-0.3-0.7-0.7-1.2-1.3c-1.4-1.7-2.6-3.4-3.7-5.3
		c-7.3-12.6-7.3-28,0.2-40.5c1.1-1.9,2.3-3.6,3.7-5.3c0.5-0.6,0.9-1,1.2-1.3c0.3-0.3,0.4-0.4,0.4-0.4c-0.1,0.2-0.2,0.3-0.4,0.5
		c-0.2,0.3-0.6,0.8-1.1,1.4c-1.3,1.7-2.5,3.5-3.6,5.3c-7.2,12.5-7.2,27.7-0.2,40.2c1,1.9,2.2,3.7,3.5,5.3c0.4,0.6,0.8,1.1,1.1,1.4
		S116.6,401.6,116.6,401.6z"/>
	<path class="st13" d="M259.1,327.2l-0.3,0.6l-6,11.1l-8.4,7.9l16.8,22l14-2.3c0,0-1.6-3.1-8.6-3.7l-2.7-13.1l9.9-15"/>
	<polygon class="st11" points="244.5,346.8 261.3,368.7 275.2,366.4 273.3,364.6 261.8,365.9 246.3,345.1 	"/>
	<path class="st0" d="M265.5,356.7c-0.1,0.2-1-0.2-2,0s-1.8,0.8-1.9,0.7c-0.1-0.1,0.5-1,1.8-1.3S265.7,356.5,265.5,356.7z"/>
	<path class="st0" d="M264.8,353.4c-0.1,0.1-0.9-0.6-2-0.6s-2,0.6-2.1,0.5s0.1-0.3,0.4-0.6c1-0.7,2.4-0.7,3.3,0.1
		C264.7,353.1,264.8,353.4,264.8,353.4z"/>
	<path class="st0" d="M264.1,349.2c-0.1,0.1-0.8-0.6-1.8-0.8c-1-0.2-1.9,0.3-2,0.1s0.1-0.3,0.5-0.5c1-0.5,2.2-0.3,3,0.5
		C264.2,348.9,264.2,349.2,264.1,349.2z"/>
	<path class="st0" d="M267.3,345.3c-0.2,0.1-0.7-0.6-1.7-1c-1-0.4-1.8-0.4-1.9-0.5c0-0.2,1-0.6,2.1,0
		C267.1,344.3,267.5,345.3,267.3,345.3z"/>
	<path class="st0" d="M268.7,342.2c-0.5-0.3-1-0.8-1.5-1.2l-1.5-1.5c-0.3-0.3-0.6-0.6-0.8-1c-0.1-0.3-0.2-0.6-0.1-0.9
		c0.1-0.3,0.4-0.5,0.8-0.6c0.5,0,1,0.2,1.4,0.4c0.4,0.2,0.7,0.5,1,0.8c0.5,0.5,0.9,1.2,1.1,1.9c0.3,0.6,0.3,1.3,0,2
		c-0.1-0.6-0.2-1.2-0.4-1.8c-0.2-0.6-0.6-1.1-1.1-1.6c-0.3-0.3-0.6-0.5-0.9-0.7c-0.3-0.2-0.7-0.3-1.1-0.4c-0.1,0-0.2,0.1-0.2,0.2
		c-0.1,0.1-0.1,0.3,0,0.4c0.2,0.3,0.4,0.6,0.7,0.9l1.4,1.6C268,341.1,268.4,341.6,268.7,342.2z"/>
	<path class="st0" d="M269.2,342.5c-0.1,0-0.1-0.7,0.5-1.7c0.9-1.3,2.5-1.9,4-1.4c0.2,0.1,0.3,0.3,0.3,0.5c0,0.2,0,0.3-0.1,0.5
		c-0.1,0.2-0.3,0.4-0.4,0.5c-0.3,0.3-0.6,0.5-0.9,0.7c-0.5,0.4-1.1,0.6-1.8,0.8c-0.6,0.2-1.2,0.3-1.8,0.1c0-0.1,0.7-0.2,1.6-0.5
		c0.6-0.2,1.1-0.5,1.6-0.9c0.3-0.2,0.6-0.4,0.8-0.7c0.1-0.1,0.2-0.2,0.3-0.4c0-0.1,0-0.1,0-0.1c-0.1-0.1-0.3-0.1-0.4-0.1
		c-0.2,0-0.4,0-0.5,0c-0.3,0-0.7,0.1-1,0.2c-0.5,0.2-1,0.5-1.4,1C269.7,341.6,269.5,342,269.2,342.5z"/>
	<path class="st11" d="M255.6,344.5c0.2,0.9-0.5,1.8-1.4,1.9c-0.9,0.1-1.8-0.5-1.9-1.4c-0.2-0.9,0.5-1.8,1.4-1.9c0,0,0,0,0,0
		C254.5,343,255.4,343.6,255.6,344.5z"/>
	<path class="st13" d="M310.1,337.7l4.5,28.6l36.3-5.3c-0.7-3.4-20.5-7.5-20.5-7.5l-2.1-18.5L310.1,337.7z"/>
	<path class="st11" d="M318.9,353.7c-0.7,0.3-1,1.1-0.8,1.8c0.3,0.7,1.1,1,1.8,0.8c0.7-0.3,1.1-1.2,0.8-2c-0.4-0.7-1.3-1-2-0.6"/>
	<path class="st11" d="M314.6,366.3l-0.3-2.9l34.9-4c0,0,1.7,0.5,1.7,1.6L314.6,366.3z"/>
	<path class="st0" d="M330.9,353.3c0,0.2-0.8,0.4-1.6,1.1c-0.8,0.7-1.1,1.5-1.3,1.4c-0.2,0-0.1-1.1,0.9-1.9
		C329.9,353.1,331,353.1,330.9,353.3z"/>
	<path class="st0" d="M335,354.3c0.1,0.2-0.7,0.6-1.1,1.4c-0.5,0.8-0.5,1.6-0.7,1.6c-0.2,0-0.4-1,0.2-2S335,354.1,335,354.3z"/>
	<path class="st0" d="M337.8,358.5c-0.2,0.1-0.5-0.8-0.2-1.8c0.3-1,1.1-1.5,1.2-1.4c0.1,0.1-0.3,0.7-0.6,1.6
		C337.9,357.7,338,358.4,337.8,358.5z"/>
	<path class="st0" d="M330,349.2c0,0.2-0.9,0-1.9,0.3c-1,0.2-1.7,0.6-1.8,0.5c-0.1-0.1,0.5-0.9,1.7-1.1
		C329.1,348.6,330,349,330,349.2z"/>
	<path class="st0" d="M328.5,345.1c-0.6,0.2-1.2,0.3-1.8,0.3c-0.7,0-1.3-0.1-2-0.3c-0.4-0.1-0.8-0.2-1.1-0.4
		c-0.2-0.1-0.4-0.2-0.6-0.3c-0.3-0.2-0.4-0.6-0.2-0.9c0.1-0.3,0.4-0.5,0.7-0.5c0.2,0,0.5,0,0.7,0c0.4,0,0.8,0.1,1.2,0.2
		c0.7,0.2,1.3,0.5,1.8,0.8c1,0.6,1.3,1.3,1.3,1.3s-0.6-0.4-1.5-0.9c-0.6-0.3-1.1-0.5-1.8-0.7c-0.4-0.1-0.7-0.1-1.1-0.2
		c-0.4,0-0.7,0-0.8,0.2c-0.1,0.2,0,0.1,0.1,0.2c0.1,0.1,0.3,0.2,0.5,0.2c0.3,0.2,0.7,0.3,1,0.4c0.6,0.2,1.2,0.3,1.9,0.4
		C327.3,344.9,327.9,345,328.5,345.1z"/>
	<path class="st0" d="M328.3,345.3c-0.1,0-0.5-0.5-0.7-1.7c-0.1-0.6-0.1-1.3,0-2c0.1-0.4,0.2-0.8,0.3-1.2c0.1-0.5,0.5-0.9,1-1.1
		c0.3,0,0.7,0.1,0.8,0.4c0.1,0.2,0.2,0.4,0.3,0.6c0.1,0.4,0.2,0.8,0.2,1.2c0,0.7-0.2,1.4-0.5,2c-0.6,1-1.3,1.3-1.3,1.3
		c0-0.1,0.5-0.5,0.9-1.5c0.2-0.6,0.4-1.2,0.3-1.8c0-0.3-0.1-0.7-0.2-1c-0.1-0.4-0.3-0.7-0.4-0.6c-0.1,0.1-0.4,0.4-0.5,0.7
		c-0.1,0.3-0.2,0.7-0.3,1c-0.1,0.6-0.2,1.2-0.1,1.8C328.1,344.7,328.4,345.3,328.3,345.3z"/>
	<polyline class="st0" points="281.6,270.5 250.4,337.1 271,349.2 314,269.1 	"/>
	<path class="st0" d="M332.9,350.7l-22.3,3.5l-13.4-78.3l-66,4.7c-1.8,0.1-3.5,0-5.2-0.5c-18.5-5-16-28.2-14.2-31.9l91.4-2.6
		c9.9-0.3,18.4,6.8,19.8,16.4L332.9,350.7z"/>
	<path class="st10" d="M210.8,251.9l0.3-33.1c0,0-4.4-21.5-5.6-30c-2-13.1-4.7-19.4,17.2-28.7l4.8-1.8l7.4,0.1
		c8.8,0.7,18.2,8.5,18.4,13.7l8.5,74.6L210.8,251.9z"/>
	<path class="st10" d="M212.2,167.7c0,0-6.2,13.1-5,25l23.1,21.7c5.2,5.6,11.6,8.1,19.9,8.5l47.8,5.1l1.3-12.3l-45.4-12.6
		c-1.8-0.3-2.7-2.2-4.1-3.4L212.2,167.7"/>
	<path class="st0" d="M208.4,171.5c0.3-0.3,0.6-0.5,0.9-0.6c1-0.4,2-0.7,3.1-0.9c1.7-0.3,3.4-0.3,5.2,0c0.5,0.1,1,0.3,1.5,0.5
		c0.5,0.3,1,0.6,1.4,1c1,0.7,1.9,1.5,2.8,2.4c1.9,1.7,3.7,4,5.8,6.2s4.4,4.7,7,7.2s5.2,5.2,8.2,7.9c1.5,1.4,3,2.8,4.6,4.1
		c0.8,0.6,1.6,1.4,2.4,2.1c0.7,0.7,1.7,1.3,2.7,1.5l0,0l45.4,12.6l0.2,0.1v0.2c-0.1,0.9-0.2,1.8-0.3,2.7c-0.3,3.3-0.7,6.5-1,9.5v0.3
		h-0.3l-20.2-2.2l-9.6-1l-9.1-0.9c-3-0.3-5.9-0.7-8.7-1.1c-2.7-0.3-5.4-0.9-8-1.8c-2.4-0.9-4.7-2.1-6.8-3.6c-2-1.4-3.9-2.8-5.6-4.2
		c-6.8-5.7-11.8-10.8-15.3-14.3c-1.7-1.7-3-3.1-4-4.1l-1-1.1c-0.2-0.2-0.3-0.4-0.3-0.4s0.1,0.1,0.4,0.3l1,1l4,4
		c3.5,3.4,8.6,8.5,15.4,14.2c1.7,1.4,3.6,2.8,5.6,4.2c2.1,1.4,4.3,2.6,6.7,3.5c2.6,0.9,5.3,1.5,8,1.8c2.8,0.4,5.7,0.7,8.7,1l9.1,0.9
		l9.6,1L298,228l-0.3,0.2c0.3-3,0.7-6.3,1-9.5c0.1-1,0.2-1.9,0.3-2.7l0.2,0.3l-45.4-12.7l0,0c-1.1-0.3-2.1-0.8-2.9-1.7
		c-0.8-0.8-1.5-1.5-2.4-2.1c-1.6-1.4-3.1-2.8-4.6-4.1c-2.9-2.7-5.6-5.4-8.1-8c-2.5-2.5-4.8-5-7-7.2c-2.1-2.3-3.9-4.5-5.8-6.2
		c-0.9-0.8-1.8-1.6-2.7-2.4c-0.4-0.4-0.9-0.7-1.4-1c-0.5-0.2-0.9-0.4-1.5-0.5c-1.7-0.3-3.4-0.3-5.1-0.1c-1.1,0.1-2.1,0.4-3.1,0.8
		C209,171.2,208.7,171.3,208.4,171.5z"/>
	<path class="st8" d="M220.4,129.5l2.3,32.3c0.4,5.3,4.8,9.4,10.2,9.4l0,0c5.6,0,10.2-4.5,10.2-10c0-0.2,0-0.5,0-0.7
		c-0.2-3.1-0.4-5.6-0.4-5.6s8-1.2,8-9c0.1-4.5-0.7-14.7-1.4-22.6c-0.5-5.3-5-9.4-10.4-9.4h-4.8c-8.1,0.5-14.3,7.3-13.8,15.2
		C220.3,129.2,220.3,129.4,220.4,129.5z"/>
	<path class="st15" d="M242.7,154.7c-3.7,0.1-7.3-0.9-10.4-2.9c0,0,2.4,5.6,10.4,4.9L242.7,154.7z"/>
	<path class="st0" d="M247.5,133.2c0,0.6-0.5,1.1-1.1,1.1c-0.6,0.1-1.1-0.4-1.2-1c0,0,0,0,0,0c0-0.6,0.5-1.1,1.1-1.1
		C247,132.2,247.5,132.6,247.5,133.2z"/>
	<path class="st0" d="M248,131.1c-0.1,0.1-1-0.5-2.2-0.5s-2.1,0.6-2.2,0.5c-0.1-0.1,0.1-0.3,0.5-0.6c0.5-0.4,1.2-0.6,1.8-0.5
		c0.6,0,1.3,0.2,1.8,0.6C247.9,130.7,248,131,248,131.1z"/>
	<path class="st0" d="M236.1,133.2c0,0.6-0.5,1.1-1.1,1.1c-0.6,0.1-1.1-0.4-1.2-1c0,0,0,0,0,0c0-0.6,0.5-1.1,1.1-1.1
		C235.5,132.2,236,132.6,236.1,133.2z"/>
	<path class="st0" d="M236,131.3c-0.1,0.1-1-0.5-2.2-0.5s-2.1,0.6-2.2,0.5s0.1-0.3,0.5-0.6c1.1-0.7,2.5-0.7,3.6,0
		C235.9,130.9,236,131.2,236,131.3z"/>
	<path class="st0" d="M240.4,140.2c0.6-0.2,1.3-0.3,2-0.4c0.3,0,0.6-0.1,0.7-0.3c0-0.3,0-0.6-0.2-0.9c-0.3-0.7-0.6-1.5-0.9-2.3
		c-0.9-2-1.6-4-2.1-6.1c1,1.9,1.9,3.8,2.6,5.9l0.9,2.3c0.2,0.4,0.3,0.8,0.2,1.2c-0.1,0.2-0.3,0.4-0.5,0.4c-0.2,0-0.3,0.1-0.5,0.1
		C241.7,140.2,241.1,140.2,240.4,140.2z"/>
	<path class="st0" d="M236.8,141c0.2,0,0.2,1.3,1.3,2.2s2.5,0.8,2.6,1c0,0.2-0.3,0.2-0.9,0.3c-0.8,0-1.5-0.3-2.1-0.7
		c-0.6-0.5-0.9-1.1-1-1.9C236.6,141.3,236.7,141,236.8,141z"/>
	<path class="st0" d="M236.3,126.6c-0.1,0.3-1.3,0.2-2.8,0.3c-1.4,0.2-2.6,0.6-2.8,0.3c-0.2-0.3,0.1-0.4,0.6-0.8
		c0.6-0.4,1.3-0.6,2.1-0.7c0.7-0.1,1.5,0,2.2,0.3C236.1,126.2,236.3,126.4,236.3,126.6z"/>
	<path class="st0" d="M247.5,127.6c-0.2,0.3-1.1,0-2.1,0s-1.9,0.2-2.1-0.1c-0.2-0.3,0-0.4,0.4-0.7c1-0.6,2.3-0.6,3.3,0.1
		C247.5,127.1,247.6,127.4,247.5,127.6z"/>
	<path class="st8" d="M223,135.4c-0.1-0.1-5.5-1.6-5.3,3.7c0.2,5.3,5.6,4.1,5.6,3.9C223.3,142.9,223,135.4,223,135.4z"/>
	<path class="st15" d="M221.6,141.1c0,0-0.1,0.1-0.2,0.1c-0.2,0.1-0.5,0.1-0.7,0c-0.7-0.4-1.2-1.2-1.2-2c0-0.5,0-0.9,0.2-1.3
		c0.1-0.3,0.4-0.6,0.7-0.7c0.2-0.1,0.5,0,0.6,0.2c0.1,0.1,0,0.3,0.1,0.3c0.1,0,0.1-0.1,0.1-0.3c0-0.1-0.1-0.3-0.2-0.3
		c-0.2-0.1-0.3-0.1-0.5-0.1c-0.5,0.1-0.8,0.4-1,0.9c-0.2,0.5-0.3,1-0.3,1.5c0,1,0.6,1.9,1.5,2.3c0.3,0.1,0.6,0,0.9-0.2
		C221.6,141.2,221.6,141.1,221.6,141.1z"/>
	<path class="st0" d="M220,135.2c1.1-0.1,2.1,0.4,2.6,1.3c0.3,0.8,0.4,1.6,0.8,2.4c0.3,0.8,1.1,1.3,2,1.3c0.6-0.2,1-0.6,1.1-1.2
		c0.1-0.6,0.1-1.2,0-1.7c-0.3-2.5-0.9-5-1-7.5c-0.2-2.5,0.3-5,1.6-7.3c1.3-2.2,3.7-3.6,6.4-3.5c1.7,0.1,3.2,1,4.9,1.2
		c2,0.3,4.1-0.4,5.5-1.8c0.3-0.3,0.6-0.5,1-0.7c0-0.6-0.2-1.2-0.6-1.6c-3.3-3-9.3-3.9-13.7-2.8c-4.5,1.1-8.3,4.1-10.3,8.2
		C218.4,125.5,219,131.1,220,135.2"/>
	<path class="st4" d="M249.4,122c0,0-20.8-6.6-29.9,11.1c-0.7-2.2-1.1-4.5-1.4-6.8c0-1.6,1-11,10.9-14
		C229.1,112.3,244,106.7,249.4,122z"/>
	<path class="st0" d="M231.5,122.4c1.3,2.1,4.1,2.7,6.2,1.5c0.4-0.2,0.7-0.5,1-0.8c0.4,1,1.5,1.7,2.6,1.7c1.1-0.1,2.1-0.8,2.4-1.9
		c0.6,0.6,1.2,1.1,2,1.5c0.8,0.3,1.7,0.1,2.3-0.5c0.5-0.7,0.4-1.7-0.1-2.3c-0.6-0.6-1.3-1.1-2.1-1.4c-2.5-1.1-5.2-1.5-7.9-1.2
		c-2.7,0.3-5.2,1.6-6.9,3.7"/>
	<g class="st7">
		<path d="M249.4,122c-1.7-1.8-4.1-2.8-6.6-2.9c-6.2-0.3-17.7,3.1-23.2,14.1c-0.7-2.2-1.1-4.5-1.4-6.8c0-1.6,1-11,10.9-14
			C229.1,112.3,244,106.7,249.4,122z"/>
	</g>
	<path class="st10" d="M220.4,131.1c3.2-4.6,7.3-8.5,12.2-11.4c4.8-2.9,12.7-5.9,18.2-7.3c1.6-0.5,3.3-0.7,5-0.5
		c1.7,0.2,3.2,1.4,3.7,3c0.5,2-3.1,5.1-4.8,6.4c-1.7,1.1-3.4,2.1-5.2,3c0,0,0-3.8-6.1-4.5C235,118.7,220.4,131.1,220.4,131.1z"/>
	<g class="st14">
		<path d="M213.1,197.6c2.2,5.1,4.3,11.4,7.4,16c3.1,4.6,7.3,8.7,12.5,10.8c6.5,2.7,14.2,3.1,20.7,0.4c0.5-0.2,1.6-0.5,1.5-1.1
			c0,0-2.1-0.2-2.8-0.4c-13.1-2.2-14.5-3.7-20.8-8.6C227.7,211.6,219,202.4,213.1,197.6"/>
	</g>
	<path class="st0" d="M254.7,234.7c-0.1,0.4-0.3,0.8-0.5,1.2c-0.6,1.1-1.3,2-2.1,2.9c-2.8,2.9-6.3,5-10.1,6.1
		c-3.8,1.1-7.8,1.7-11.8,1.7c-1.5,0.1-2.8,0.1-3.6,0.1c-0.4,0-0.9,0-1.3-0.1c0.4-0.1,0.9-0.1,1.3-0.1l3.6-0.2
		c3.9-0.2,7.9-0.8,11.7-1.9c3.8-1.1,7.2-3.1,10-5.9C252.8,237.3,253.8,236,254.7,234.7z"/>
	<g>
		<path class="st16" d="M150.8,249.5c5,3,4.1,8.6,6.7,9.9c2.4,1.2-8,0.9-12.8-2.4c-5.6-3.7-2.7-6.6-5.8-9.5
			C135.9,244.8,143.7,245.3,150.8,249.5z"/>
		<path class="st16" d="M122.2,240.1c1.1,1.3,0.1,2.9,0.7,3.5c0.6,0.5-2.5-0.4-3.5-1.7c-1.2-1.5,0-2.2-0.5-3.3
			C118.4,237.6,120.6,238.3,122.2,240.1z"/>
		<path class="st16" d="M152,243.7c1.1,1.3,0.1,2.9,0.7,3.5c0.6,0.5-2.5-0.4-3.5-1.7c-1.2-1.5,0-2.2-0.5-3.3
			C148.2,241.2,150.4,241.9,152,243.7z"/>
		<path class="st16" d="M128.8,241.4c-0.7,1.4-3,1.7-3.3,2.4c-0.3,0.7-1-1.8-0.2-3.2c0.9-1.6,2.3-1.2,3.2-2.2
			C129.3,237.5,129.8,239.4,128.8,241.4z"/>
		<ellipse transform="matrix(0.9138 -0.4062 0.4062 0.9138 -91.9751 72.509)" class="st17" cx="124.8" cy="252.9" rx="6" ry="9"/>
		
			<ellipse transform="matrix(0.7548 -0.656 0.656 0.7548 -132.3038 153.526)" class="st18" cx="139.2" cy="253.7" rx="6.1" ry="4.7"/>
		<path class="st19" d="M136.1,256.4c-2.1,0.4-7.2-0.8-7.2-0.8c-0.1-23.6,11.1-28.7,17.2-28.8c9.3-0.2,14.4,5.9,15.6,27.5l-4.1,0.4
			c-1-4-2.5-24.5-9.6-24.3c-3.4,0.1-14.1,0.7-11.9,24.7L136.1,256.4z"/>
		<path class="st16" d="M158.5,245c-0.7,1.4-3,1.7-3.3,2.4c-0.3,0.7-1-1.8-0.2-3.2c0.9-1.6,2.3-1.2,3.2-2.2
			C159,241.1,159.6,243,158.5,245z"/>
		<ellipse class="st20" cx="156.4" cy="253.9" rx="8" ry="6.2"/>
		<ellipse class="st21" cx="175.4" cy="253.1" rx="4.9" ry="3.8"/>
		<ellipse class="st22" cx="165.6" cy="253.9" rx="4.9" ry="3.8"/>
		<path class="st19" d="M111,252.8c-0.5,0.8,1.5,2.4,3.1,5.6c2.6,5.2,2.8,10.8,6.2,12.4c4.1,2,15.2,3.4,28.2,3.1
			c9.8-0.2,24.6-0.5,27.2-3.3c3.8-4.2,6.1-8.9,8.2-14.8c0.7-2,2.4-4.3,1-5.2c-1.7-1.1-6.4,0.3-7.7,0.8c-12.1,4.5-32,5.3-41,4.9
			C122.6,255.8,112,251.1,111,252.8z"/>
		<ellipse class="st23" cx="164.6" cy="251.7" rx="1.4" ry="1.1"/>
		<ellipse class="st23" cx="154.6" cy="250.5" rx="2.6" ry="2"/>
		
			<ellipse transform="matrix(0.3363 -0.9417 0.9417 0.3363 -151.8103 278.4776)" class="st23" cx="121.7" cy="246.9" rx="2.2" ry="1.2"/>
		<ellipse class="st23" cx="201.3" cy="218.1" rx="1.5" ry="1.2"/>
		<ellipse class="st24" cx="115.6" cy="243.5" rx="2.6" ry="2.2"/>
		<ellipse class="st24" cx="115.3" cy="249.9" rx="1.8" ry="1.4"/>
		<ellipse class="st24" cx="111" cy="246.9" rx="2.1" ry="1.6"/>
		
			<ellipse transform="matrix(0.6613 -0.7501 0.7501 0.6613 -140.6341 189.9759)" class="st23" cx="140.1" cy="250.7" rx="2" ry="1.4"/>
		
			<ellipse transform="matrix(0.3267 -0.9451 0.9451 0.3267 -113.9237 332.4902)" class="st25" cx="176.4" cy="246.2" rx="2" ry="4.3"/>
		<ellipse transform="matrix(0.856 -0.517 0.517 0.856 -103.3247 122.4765)" class="st26" cx="168.2" cy="246.7" rx="2" ry="1.6"/>
		
			<ellipse transform="matrix(0.4687 -0.8834 0.8834 0.4687 -137.8858 253.767)" class="st26" cx="142" cy="241.5" rx="1.6" ry="2.1"/>
		<ellipse class="st24" cx="165.6" cy="242.1" rx="2.3" ry="2"/>
		<ellipse class="st27" cx="172.6" cy="240.1" rx="2.6" ry="2"/>
		<g>
			<g>
				<path class="st28" d="M121.1,265.3c0.6,0.4,1.2,0.9,1.8,1.3c-0.1-0.1-0.1-0.1,0,0c0.1,0.1,0.1,0.1,0.2,0.2
					c0.1,0.1,0.3,0.2,0.4,0.3c0.3,0.2,0.6,0.5,0.9,0.7c1.2,0.9,2.3,1.8,3.5,2.8c0.6,0.5,1.5,0.6,2.1,0c0.5-0.6,0.6-1.6,0-2.1
					c-2.4-2-4.9-3.9-7.4-5.8c-0.6-0.5-1.7-0.1-2.1,0.5C120.2,264,120.5,264.8,121.1,265.3L121.1,265.3z"/>
			</g>
		</g>
		<g>
			<g>
				<path class="st28" d="M125,259.6c5.9,4.1,11.7,8.3,17.6,12.4c0.7,0.5,1.7,0.1,2.1-0.5c0.4-0.8,0.1-1.6-0.5-2.1
					c-5.9-4.1-11.7-8.3-17.6-12.4c-0.7-0.5-1.7-0.1-2.1,0.5C124,258.3,124.3,259.2,125,259.6L125,259.6z"/>
			</g>
		</g>
		<g>
			<g>
				<path class="st28" d="M139.6,260.6c6.5,3.7,13.1,7.3,19.4,11.5c1.6,1.1,3.1-1.5,1.5-2.6c-6.2-4.2-12.9-7.7-19.4-11.5
					C139.4,257.1,137.9,259.7,139.6,260.6L139.6,260.6z"/>
			</g>
		</g>
		<g>
			<g>
				<path class="st28" d="M152.5,260c5.8,3.3,11.6,6.6,17.5,9.9c1.7,1,3.2-1.6,1.5-2.6c-5.8-3.3-11.6-6.6-17.5-9.9
					C152.3,256.5,150.8,259.1,152.5,260L152.5,260z"/>
			</g>
		</g>
		<g>
			<g>
				<path class="st28" d="M164.5,259.3c3.3,1.9,6.6,3.7,9.8,5.6c0.7,0.4,1.6,0.2,2.1-0.5c0.4-0.7,0.2-1.7-0.5-2.1
					c-3.3-1.9-6.6-3.7-9.8-5.6c-0.7-0.4-1.6-0.2-2.1,0.5C163.5,257.9,163.8,258.9,164.5,259.3L164.5,259.3z"/>
			</g>
		</g>
		<g>
			<g>
				<path class="st28" d="M173.5,257.1c0.1,0,0.1,0.1,0.2,0.1c-0.1-0.1-0.2-0.1-0.4-0.2c1.3,0.6,2.6,1.3,3.8,2.2
					c-0.1-0.1-0.2-0.2-0.3-0.2c0.1,0.1,0.1,0.1,0.2,0.2c0.3,0.3,0.6,0.4,1.1,0.4c0.4,0,0.8-0.2,1.1-0.4c0.3-0.3,0.5-0.7,0.4-1.1
					c0-0.4-0.1-0.8-0.4-1.1c-0.7-0.6-1.5-1.1-2.3-1.6c-0.8-0.5-1.7-0.9-2.6-1.2c-0.3-0.1-0.9,0-1.2,0.2c-0.3,0.2-0.6,0.5-0.7,0.9
					c-0.1,0.4-0.1,0.8,0.2,1.2c0.1,0.1,0.2,0.2,0.2,0.3C173,256.9,173.2,257.1,173.5,257.1L173.5,257.1z"/>
			</g>
		</g>
		<g>
			<g>
				<path class="st28" d="M170.3,264.7c-0.4,0.4-0.9,0.8-1.4,1.1c-0.1,0.1-0.3,0.2-0.4,0.3c-0.2,0.1,0,0,0,0c-0.1,0-0.1,0.1-0.2,0.1
					c-0.2,0.2-0.5,0.4-0.7,0.6c-1,0.7-2,1.4-3.1,2c-0.7,0.4-1,1.4-0.5,2.1c0.4,0.7,1.3,1,2.1,0.5c2.2-1.3,4.4-2.9,6.3-4.6
					c0.6-0.5,0.6-1.6,0-2.1C171.8,264.1,170.9,264.1,170.3,264.7L170.3,264.7z"/>
			</g>
		</g>
		<g>
			<g>
				<path class="st28" d="M177.3,254.4c-4.2,3-8.9,5.5-13.5,7.9c-4.8,2.5-9.7,5-14.6,7.4c-1.7,0.8-0.2,3.4,1.5,2.6
					c4.9-2.4,9.8-4.8,14.6-7.4c4.6-2.4,9.2-4.9,13.5-7.9C180.3,255.9,178.9,253.3,177.3,254.4L177.3,254.4z"/>
			</g>
		</g>
		<g>
			<g>
				<path class="st28" d="M160.3,257.6c-7.9,4-15.8,8.2-23.6,12.5c-1.7,0.9-0.2,3.5,1.5,2.6c7.8-4.3,15.7-8.4,23.6-12.5
					C163.5,259.3,162,256.7,160.3,257.6L160.3,257.6z"/>
			</g>
		</g>
		<g>
			<g>
				<path class="st28" d="M145.7,258.3c-3.1,2.1-6.4,3.8-9.8,5.5c-3.6,1.8-7.2,3.5-10.8,5.2c-1.7,0.8-0.2,3.4,1.5,2.6
					c3.6-1.7,7.2-3.5,10.8-5.2c3.4-1.6,6.7-3.4,9.8-5.5C148.8,259.8,147.3,257.2,145.7,258.3L145.7,258.3z"/>
			</g>
		</g>
		<g>
			<g>
				<path class="st28" d="M132.1,258.4c-3.8,2.6-8,4.8-12.3,6.5c-0.8,0.3-1.3,1-1,1.8c0.2,0.7,1.1,1.3,1.8,1c4.6-1.8,9-4,13-6.8
					c0.7-0.5,1-1.3,0.5-2.1C133.8,258.2,132.8,257.9,132.1,258.4L132.1,258.4z"/>
			</g>
		</g>
		<g>
			<g>
				<path class="st28" d="M125.1,256.4c-0.2,0.1-0.3,0.3-0.5,0.4c-0.1,0.1-0.1,0.1-0.2,0.2c-0.1,0.1-0.4,0.3,0,0
					c-0.3,0.2-0.6,0.5-1,0.7c-0.7,0.4-1.4,0.8-2.2,1.2c0.1-0.1,0.2-0.1,0.4-0.2c-0.3,0.1-0.5,0.2-0.8,0.3c-0.4,0.1-0.7,0.3-0.9,0.7
					c-0.2,0.3-0.3,0.8-0.2,1.2c0.2,0.7,1.1,1.3,1.8,1c2.1-0.8,4-1.8,5.6-3.4c0.6-0.5,0.6-1.6,0-2.1
					C126.6,255.9,125.7,255.8,125.1,256.4L125.1,256.4z"/>
			</g>
		</g>
	</g>
	<path class="st13" d="M311,356.6c0-0.1-0.1-0.2-0.1-0.3c0-0.2-0.1-0.5-0.2-0.9c-0.1-0.8-0.4-2-0.6-3.5c-0.5-3-1.3-7.4-2.3-12.8
		c-1.9-10.8-4.4-25.7-7.3-42.1c-1.3-7.4-2.5-14.6-3.6-21.1l0.3,0.2l-28.6,2l-8.2,0.5l-2.2,0.1h-0.6h-0.2c0,0,0.1,0,0.2,0l0.6-0.1
		l2.2-0.2l8.2-0.7l28.6-2.2h0.2v0.2c1.1,6.5,2.3,13.6,3.6,21.1c2.8,16.5,5.3,31.3,7.1,42.2c0.9,5.4,1.6,9.8,2.1,12.8
		c0.2,1.5,0.4,2.7,0.5,3.5c0,0.4,0.1,0.7,0.1,0.9C310.9,356.4,311,356.5,311,356.6z"/>
	<path class="st13" d="M303.9,268.9c0.1,0.1-1.6,1.6-3.6,3.6c-2,2-3.4,3.7-3.6,3.6C298.6,273.2,301,270.8,303.9,268.9L303.9,268.9z"
		/>
	<path class="st0" d="M242.9,161.1c0,0,0.1,0.1,0.1,0.3c0.1,0.3,0.2,0.6,0.2,1c0.1,1.2,0,2.4-0.5,3.6c-0.6,1.7-1.8,3.2-3.3,4.2
		c-1.9,1.3-4.1,1.9-6.4,1.7c-2.3-0.2-4.4-0.9-6.2-2.3c-1.4-1.1-2.6-2.5-3.5-4c-0.6-1-1-2.2-1.4-3.3c-0.1-0.4-0.2-0.7-0.2-1
		s0-0.3,0-0.3c0.5,1.5,1.1,3,1.9,4.4c0.9,1.5,2.1,2.8,3.5,3.8c1.7,1.3,3.8,2,6,2.2c2.1,0.2,4.3-0.4,6.1-1.6c1.4-1,2.5-2.4,3.2-4
		c0.5-1.1,0.7-2.2,0.6-3.4C243,161.5,242.8,161.1,242.9,161.1z"/>
	<path class="st29" d="M248,283.2"/>
	<path class="st0" d="M256.9,203.7c-0.1-0.3-0.2-0.6-0.2-1c-0.1-0.8-0.2-1.7-0.4-2.8c-0.3-2.5-0.8-5.7-1.2-9.2
		c-0.5-3.5-0.8-6.8-1-9.3c-0.1-1.2-0.2-2.2-0.2-2.8c0-0.3,0-0.7,0-1c0.1,0.3,0.2,0.6,0.2,1c0.1,0.8,0.2,1.7,0.4,2.8
		c0.3,2.5,0.7,5.7,1.2,9.2c0.4,3.5,0.8,6.8,1.1,9.3c0.1,1.2,0.2,2.2,0.2,2.8C257,203.1,257,203.4,256.9,203.7z"/>
	<path class="st0" d="M136.2,280.7c-0.3,0,1.1-13.5,3-30.1c1.9-16.6,3.8-30.1,4-30.1c0.2,0-1.1,13.5-3,30.1S136.5,280.7,136.2,280.7
		z"/>
	<path class="st0" d="M194.6,239.1c0,0.1-22,0.3-49.1,0.3s-49.1-0.1-49.1-0.3s22-0.3,49.1-0.3S194.6,238.9,194.6,239.1z"/>
	<path class="st0" d="M194.8,280.1c0,0.1-22,0.3-49.1,0.3s-49.1-0.1-49.1-0.3s22-0.3,49.1-0.3S194.8,279.9,194.8,280.1z"/>
	<path class="st0" d="M149.2,280.3c-0.1,0-0.3-13.4-0.3-29.8s0.1-29.8,0.3-29.8s0.3,13.4,0.3,29.8S149.4,280.3,149.2,280.3z"/>
</g>
</svg>
