<svg xmlns="http://www.w3.org/2000/svg" xmlns:xlink="http://www.w3.org/1999/xlink" viewBox="0 0 396.05 297.14"><defs><style>.cls-1,.cls-2,.cls-3,.cls-4,.cls-5{stroke:#000;stroke-miterlimit:10;}.cls-1{fill:url(#Degradado_sin_nombre_91);}.cls-2{fill:url(#Degradado_sin_nombre_78);}.cls-3{fill:url(#Degradado_sin_nombre_69);}.cls-4{fill:url(#Degradado_sin_nombre_78-2);}.cls-5{fill:url(#Degradado_sin_nombre_69-2);}</style><linearGradient id="Degradado_sin_nombre_91" x1="168.5" y1="117.13" x2="267.25" y2="174.14" gradientUnits="userSpaceOnUse"><stop offset="0" stop-color="#00d1f7"/><stop offset="0.16" stop-color="#02a2d5"/><stop offset="0.38" stop-color="#0369ab"/><stop offset="0.58" stop-color="#053b8a"/><stop offset="0.75" stop-color="#061b73"/><stop offset="0.9" stop-color="#070764"/><stop offset="1" stop-color="#07005f"/></linearGradient><linearGradient id="Degradado_sin_nombre_78" x1="57.88" y1="70.41" x2="395.17" y2="70.41" gradientUnits="userSpaceOnUse"><stop offset="0" stop-color="#00d1f7"/><stop offset="0.39" stop-color="#00cff6"/><stop offset="0.53" stop-color="#00c8f1"/><stop offset="0.63" stop-color="#01bde8"/><stop offset="0.71" stop-color="#01acdc"/><stop offset="0.78" stop-color="#0296cc"/><stop offset="0.84" stop-color="#037ab8"/><stop offset="0.89" stop-color="#045aa0"/><stop offset="0.94" stop-color="#053485"/><stop offset="0.99" stop-color="#070b67"/><stop offset="1" stop-color="#07005f"/></linearGradient><linearGradient id="Degradado_sin_nombre_69" x1="0.88" y1="88.96" x2="202.88" y2="88.96" gradientUnits="userSpaceOnUse"><stop offset="0" stop-color="#00d1f7"/><stop offset="0.01" stop-color="#00c6ef"/><stop offset="0.06" stop-color="#029dd1"/><stop offset="0.11" stop-color="#0377b6"/><stop offset="0.16" stop-color="#04579e"/><stop offset="0.22" stop-color="#053b8a"/><stop offset="0.29" stop-color="#06257a"/><stop offset="0.37" stop-color="#06146e"/><stop offset="0.47" stop-color="#070965"/><stop offset="0.61" stop-color="#070260"/><stop offset="1" stop-color="#07005f"/></linearGradient><linearGradient id="Degradado_sin_nombre_78-2" x1="145.88" y1="-747.59" x2="483.17" y2="-747.59" gradientTransform="translate(484.05 -520.86) rotate(180)" xlink:href="#Degradado_sin_nombre_78"/><linearGradient id="Degradado_sin_nombre_69-2" x1="88.88" y1="-729.04" x2="290.88" y2="-729.04" gradientTransform="translate(484.05 -520.86) rotate(180)" xlink:href="#Degradado_sin_nombre_69"/></defs><g id="Capa_2" data-name="Capa 2"><g id="Capa_1-2" data-name="Capa 1"><circle class="cls-1" cx="217.88" cy="145.64" r="57"/><path class="cls-2" d="M73.27,59.7c5.12-5.57,10.33-11,15.61-16.06,26-25,67-45,107.5-43,42.49,2.1,80.83,17.07,107.43,44.28,14.33,14.66,34.07,34.72,47.07,51.72,1,1.31,10.78,11.78,21,22,7.5,7.5,22.5,16.59,22.5,16.59,8.68,3.75-56.36,9.49-72.85-.45a71.69,71.69,0,0,1-12.62-9.41c-6.52-6.42-12.77-13-13.41-13.82-8.3-10.69-20.9-23.29-30.05-32.5C252.83,66.35,236.23,56.61,218,50,161.88,29.64,57.88,76.64,57.88,76.64Z"/><path class="cls-3" d="M6.05,129.5a1.75,1.75,0,0,1-.29.18l.29-.18c6.9-5.34,21-17,26.83-22.86,8.89-8.89,16.11-18,24-29,.19-.27-.4.53,0,0l2-2c13-14.72,67-57,144-30-33-2-57.07,15.9-73.67,31.6-13,12.33-28.3,27-39.33,39.4-3.21,3.61-10.56,9.79-14.48,13-2.52,2-32.52,22-74.52,4l1-1a38.25,38.25,0,0,1,3.88-3"/><path class="cls-4" d="M322.77,237.44c-5.11,5.57-10.32,11-15.6,16.06-26,25-67,45-107.5,43-42.5-2.1-80.83-17.07-107.44-44.28C77.9,237.56,58.17,217.5,45.17,200.5c-1-1.31-10.79-11.79-21-22-7.5-7.5-22.5-16.59-22.5-16.59-8.68-3.75,56.35-9.49,72.84.45a71.69,71.69,0,0,1,12.62,9.41c6.53,6.42,12.77,13,13.41,13.82,8.3,10.68,20.9,23.29,30.06,32.5,12.62,12.7,29.21,22.44,47.42,29,56.15,20.37,160.15-26.63,160.15-26.63Z"/><path class="cls-5" d="M390,167.64a1.75,1.75,0,0,1,.29-.18l-.29.18c-6.9,5.34-20.95,17-26.82,22.86-8.89,8.89-16.11,18-24,29h0l-2,2c-13,14.72-67,57-144,30,33,2,57.07-15.9,73.67-31.61,13-12.33,28.29-27,39.33-39.39,3.21-3.61,10.56-9.79,14.47-12.95,2.53-2.05,32.53-22.05,74.53-4.05l-1,1a36.13,36.13,0,0,1-3.89,3"/></g></g></svg>